<svg width="120" height="40" viewBox="0 0 120 40" fill="none" xmlns="http://www.w3.org/2000/svg">
<g clip-path="url(#clip0)">
<path d="M115.556 40H4.44444C2 40 0 37.75 0 35V5.00005C0 2.25005 2 5.34058e-05 4.44444 5.34058e-05H115.556C118 5.34058e-05 120 2.25005 120 5.00005V35C120 37.75 118 40 115.556 40Z" fill="black"/>
<path d="M115.556 5.34058e-05H4.44444C2 5.34058e-05 0 2.25005 0 5.00005V35C0 37.75 2 40 4.44444 40H115.556C118 40 120 37.75 120 35V5.00005C120 2.25005 118 5.34058e-05 115.556 5.34058e-05ZM115.556 0.800053C117.614 0.800053 119.289 2.68445 119.289 5.00005V35C119.289 37.316 117.614 39.2004 115.556 39.2004H4.44444C2.38613 39.2004 0.711111 37.316 0.711111 35V5.00005C0.711111 2.68445 2.38613 0.800053 4.44444 0.800053H115.556Z" fill="#A6A6A6"/>
<path d="M95.2765 30.8889H96.9351V19.7768H95.2765V30.8889ZM110.216 23.7796L108.315 28.5973H108.258L106.284 23.7796H104.498L107.457 30.5132L105.77 34.2587H107.5L112.06 23.7796H110.216ZM100.81 29.6268C100.266 29.6268 99.5085 29.3552 99.5085 28.6831C99.5085 27.8254 100.452 27.4966 101.267 27.4966C101.996 27.4966 102.339 27.6538 102.782 27.8685C102.653 28.8976 101.767 29.6268 100.81 29.6268ZM101.01 23.5365C99.8089 23.5365 98.5654 24.0656 98.0507 25.2379L99.5227 25.8525C99.8374 25.2379 100.423 25.0376 101.038 25.0376C101.896 25.0376 102.768 25.5525 102.782 26.4674V26.5816C102.482 26.4101 101.839 26.1528 101.052 26.1528C99.4658 26.1528 97.8498 27.0247 97.8498 28.6545C97.8498 30.1414 99.1511 31.0993 100.609 31.0993C101.724 31.0993 102.339 30.599 102.725 30.0129H102.782V30.8705H104.383V26.6101C104.383 24.6376 102.911 23.5365 101.01 23.5365ZM90.7591 25.1323H88.4V21.3233H90.7591C91.9991 21.3233 92.7031 22.35 92.7031 23.2278C92.7031 24.0889 91.9991 25.1323 90.7591 25.1323ZM90.7165 19.7768H86.7422V30.8889H88.4V26.6789H90.7165C92.5547 26.6789 94.3618 25.348 94.3618 23.2278C94.3618 21.1077 92.5547 19.7768 90.7165 19.7768ZM69.0445 29.6288C67.8986 29.6288 66.9392 28.6695 66.9392 27.3518C66.9392 26.0202 67.8986 25.0463 69.0445 25.0463C70.1758 25.0463 71.0636 26.0202 71.0636 27.3518C71.0636 28.6695 70.1758 29.6288 69.0445 29.6288ZM70.949 24.4018H70.8917C70.5195 23.958 69.8031 23.557 68.9011 23.557C67.0108 23.557 65.2782 25.2181 65.2782 27.3518C65.2782 29.4712 67.0108 31.1181 68.9011 31.1181C69.8031 31.1181 70.5195 30.717 70.8917 30.2591H70.949V30.8031C70.949 32.2497 70.1758 33.023 68.9299 33.023C67.9132 33.023 67.2831 32.2924 67.025 31.6767L65.5789 32.2782C65.9942 33.2806 67.0969 34.5122 68.9299 34.5122C70.8774 34.5122 72.5243 33.3663 72.5243 30.574V23.7862H70.949V24.4018ZM73.6698 30.8889H75.331V19.7764H73.6698V30.8889ZM77.7799 27.223C77.7368 25.7622 78.9111 25.0177 79.7559 25.0177C80.4151 25.0177 80.9734 25.3469 81.1591 25.8199L77.7799 27.223ZM82.9351 25.9629C82.6205 25.1177 81.6605 23.557 79.6986 23.557C77.751 23.557 76.133 25.0893 76.133 27.3376C76.133 29.457 77.7368 31.1181 79.8847 31.1181C81.6178 31.1181 82.6205 30.0583 83.0356 29.4427L81.7467 28.5833C81.3174 29.2135 80.7298 29.6288 79.8847 29.6288C79.0399 29.6288 78.4386 29.2421 78.0518 28.4833L83.1067 26.3924L82.9351 25.9629ZM42.6612 24.717V26.3208H46.499C46.3844 27.223 46.0837 27.8816 45.6254 28.3399C45.0671 28.8986 44.1935 29.5143 42.6612 29.5143C40.2983 29.5143 38.4511 27.6097 38.4511 25.2469C38.4511 22.884 40.2983 20.9792 42.6612 20.9792C43.9358 20.9792 44.8663 21.4806 45.5538 22.125L46.6851 20.9938C45.7257 20.0771 44.4511 19.3754 42.6612 19.3754C39.4247 19.3754 36.7039 22.0104 36.7039 25.2469C36.7039 28.4833 39.4247 31.1181 42.6612 31.1181C44.4084 31.1181 45.7257 30.5455 46.7567 29.4712C47.8164 28.4115 48.1459 26.9223 48.1459 25.7195C48.1459 25.3469 48.1174 25.0035 48.0598 24.717H42.6612ZM52.5091 29.6288C51.3632 29.6288 50.3751 28.6837 50.3751 27.3376C50.3751 25.9771 51.3632 25.0463 52.5091 25.0463C53.6545 25.0463 54.6427 25.9771 54.6427 27.3376C54.6427 28.6837 53.6545 29.6288 52.5091 29.6288ZM52.5091 23.557C50.4181 23.557 48.7139 25.1465 48.7139 27.3376C48.7139 29.5143 50.4181 31.1181 52.5091 31.1181C54.5997 31.1181 56.3039 29.5143 56.3039 27.3376C56.3039 25.1465 54.5997 23.557 52.5091 23.557ZM60.7875 29.6288C59.6421 29.6288 58.6538 28.6837 58.6538 27.3376C58.6538 25.9771 59.6421 25.0463 60.7875 25.0463C61.933 25.0463 62.9212 25.9771 62.9212 27.3376C62.9212 28.6837 61.933 29.6288 60.7875 29.6288ZM60.7875 23.557C58.6966 23.557 56.9927 25.1465 56.9927 27.3376C56.9927 29.5143 58.6966 31.1181 60.7875 31.1181C62.8782 31.1181 64.5823 29.5143 64.5823 27.3376C64.5823 25.1465 62.8782 23.557 60.7875 23.557Z" fill="white"/>
<path d="M9.56434 33.0129L9.49829 32.9497C9.23962 32.6761 9.08691 32.2511 9.08691 31.7008V31.8303V12.1716C9.08691 12.1699 9.08691 12.1685 9.08691 12.1671C9.08691 12.1688 9.08691 12.1702 9.08691 12.172V12.3019C9.08691 11.7059 9.26496 11.2571 9.56327 10.9879L20.5764 22.0008L9.56434 33.0129ZM9.08691 12.166C9.08691 12.1171 9.08825 12.0695 9.09074 12.0227C9.08825 12.0691 9.08691 12.1171 9.08691 12.166ZM9.09074 12.0205C9.09074 12.0199 9.09074 12.0192 9.091 12.0185C9.09074 12.0192 9.09074 12.0199 9.09074 12.0205ZM9.091 12.0143C9.091 12.014 9.091 12.0136 9.091 12.0132C9.091 12.0136 9.091 12.014 9.091 12.0143Z" fill="url(#paint0_linear)"/>
<path d="M24.2469 25.8032L24.3306 25.7557L28.6799 23.2845C29.0945 23.0487 29.3709 22.763 29.5088 22.4606C29.3713 22.763 29.0948 23.0491 28.6799 23.2848L24.3306 25.756L24.2469 25.8032ZM24.248 25.673L20.5764 22.0008L24.2476 18.3293L28.6799 20.8473C29.2427 21.1671 29.5587 21.5793 29.6115 22.0005C29.6115 22.0008 29.6115 22.0015 29.6115 22.0022C29.5587 22.4223 29.2427 22.8349 28.6799 23.1546L24.248 25.673Z" fill="url(#paint1_linear)"/>
<path d="M10.3494 33.4324C10.0418 33.4324 9.77333 33.3324 9.56399 33.1435L9.56435 33.1431C9.77368 33.332 10.0425 33.4324 10.3501 33.4324C10.3768 33.4324 10.4039 33.4317 10.4314 33.4303C10.4036 33.4317 10.3761 33.4324 10.3494 33.4324ZM10.3498 33.3022C10.0421 33.3025 9.77368 33.2022 9.56435 33.0133V33.013L20.5764 22.0008L24.248 25.673L11.3456 33.0039C10.9886 33.2063 10.6504 33.3022 10.3498 33.3022ZM9.56124 33.1411C9.54177 33.1234 9.52266 33.1046 9.50391 33.0852L9.56124 33.1411Z" fill="url(#paint2_linear)"/>
<path d="M20.5764 22.0009L9.56323 10.988C9.77257 10.7994 10.0407 10.6994 10.3479 10.6994C10.6494 10.6994 10.9879 10.7956 11.3455 10.9984L24.2476 18.3293L20.5764 22.0009ZM24.3306 18.2464L11.3455 10.8686C10.9879 10.6658 10.6494 10.5696 10.3479 10.5696C10.3465 10.5696 10.3455 10.5696 10.3441 10.5696C10.3459 10.5696 10.3472 10.5696 10.3494 10.5696C10.6501 10.5696 10.9882 10.6654 11.3455 10.8682L24.3306 18.2464Z" fill="url(#paint3_linear)"/>
<path d="M10.4314 33.4303C10.7108 33.4143 11.0202 33.3181 11.3456 33.1338L24.2469 25.8032L11.3456 33.1338C11.0205 33.3185 10.7108 33.4143 10.4314 33.4303ZM9.56398 33.1435L9.56123 33.1411C9.5622 33.1418 9.56327 33.1427 9.56398 33.1435ZM9.50389 33.0851L9.49829 33.0796V33.0793C9.50042 33.0813 9.50211 33.0834 9.50389 33.0851Z" fill="black"/>
<path d="M24.2468 25.8032L24.3306 25.7557L24.2468 25.8032Z" fill="url(#paint4_linear)"/>
<path d="M10.3501 33.4324C10.0425 33.4324 9.77367 33.332 9.56434 33.1431L9.56398 33.1435C9.56327 33.1428 9.5622 33.1418 9.56123 33.1411L9.50389 33.0852C9.50211 33.0834 9.50042 33.0814 9.49829 33.0793L9.56434 33.0133C9.77367 33.2022 10.0421 33.3025 10.3498 33.3022C10.6504 33.3022 10.9886 33.2063 11.3456 33.0039L24.248 25.673L24.3306 25.7557L24.2469 25.8032L11.3456 33.1338C11.0202 33.3182 10.7108 33.4143 10.4314 33.4303C10.4039 33.4317 10.3768 33.4324 10.3501 33.4324Z" fill="url(#paint5_linear)"/>
<path d="M9.49829 33.0796C9.23962 32.8059 9.08691 32.3809 9.08691 31.8306V31.8303C9.08691 32.3809 9.23962 32.8055 9.49829 33.0792V33.0796Z" fill="black"/>
<path d="M9.49829 33.0793C9.23962 32.8057 9.08691 32.381 9.08691 31.8304V31.7009C9.08691 32.2512 9.23962 32.6761 9.49829 32.9498L9.56434 33.013L9.49829 33.0793Z" fill="url(#paint6_linear)"/>
<path d="M9.49829 33.0793L9.56434 33.013V33.0133L9.49829 33.0793Z" fill="url(#paint7_linear)"/>
<path d="M29.5088 22.4604C29.5771 22.3104 29.6115 22.1563 29.6115 22.0021C29.6115 22.0018 29.6115 22.0014 29.6115 22.0014C29.6115 22.1559 29.5771 22.3101 29.5088 22.4604Z" fill="black"/>
<path d="M24.3305 25.7556L24.2478 25.6729L28.6797 23.1546C29.2426 22.8348 29.5586 22.4223 29.6114 22.0021C29.6114 22.1563 29.577 22.3105 29.5086 22.4605C29.3707 22.7629 29.0944 23.0487 28.6797 23.2844L24.3305 25.7556Z" fill="url(#paint8_linear)"/>
<path d="M29.6116 22.0009V22.0005C29.6112 21.5355 29.3005 21.0706 28.6799 20.7178L24.3307 18.2466H24.3303L24.3307 18.2464L28.6799 20.7175C29.3012 21.0703 29.6123 21.5359 29.6116 22.0009Z" fill="#404040"/>
<path d="M29.6115 22.0005C29.5587 21.5793 29.2427 21.1672 28.6798 20.8473L24.2476 18.3293L24.3302 18.2466H24.3306L28.6798 20.7178C29.3004 21.0706 29.6111 21.5355 29.6115 22.0005Z" fill="url(#paint9_linear)"/>
<path d="M9.08691 12.1671C9.08691 12.1668 9.08691 12.1664 9.08691 12.166C9.08691 12.1664 9.08691 12.1668 9.08691 12.1671ZM9.09074 12.0227C9.09074 12.022 9.09074 12.0212 9.09074 12.0205C9.09074 12.0212 9.09074 12.022 9.09074 12.0227ZM9.091 12.0185C9.091 12.0171 9.091 12.0157 9.091 12.0143C9.091 12.0157 9.091 12.0171 9.091 12.0185ZM9.091 12.0132C9.14247 11.1001 9.639 10.5726 10.3414 10.5695C10.0369 10.5713 9.77162 10.6713 9.56398 10.8584V10.858L9.56149 10.8605C9.53962 10.8803 9.51882 10.9012 9.49829 10.9227C9.26496 11.1695 9.11776 11.5393 9.091 12.0132Z" fill="#404040"/>
<path d="M9.08691 12.3019V12.172C9.08691 12.1702 9.08691 12.1688 9.08691 12.1671C9.08691 12.1668 9.08691 12.1664 9.08691 12.1661C9.08691 12.1171 9.08825 12.0692 9.09074 12.0227C9.09074 12.022 9.09074 12.0213 9.09074 12.0205C9.09074 12.0199 9.09074 12.0192 9.091 12.0185C9.091 12.0171 9.091 12.0157 9.091 12.0143C9.091 12.014 9.091 12.0136 9.091 12.0133C9.11776 11.5393 9.26496 11.1695 9.49829 10.9227L9.56327 10.9879C9.26496 11.2571 9.08691 11.706 9.08691 12.3019ZM9.56149 10.8605L9.56398 10.8581C9.56327 10.8591 9.5622 10.8598 9.56149 10.8605Z" fill="url(#paint10_linear)"/>
<path d="M24.2476 18.3293L11.3456 10.9984C10.9879 10.7957 10.6494 10.6995 10.348 10.6995C10.0407 10.6995 9.7726 10.7995 9.56327 10.988L9.49829 10.9228C9.51882 10.9013 9.53962 10.8804 9.56149 10.8606C9.5622 10.8599 9.56327 10.8592 9.56398 10.8585C9.77162 10.6714 10.0369 10.5714 10.3414 10.5696C10.3421 10.5696 10.3431 10.5696 10.3442 10.5696C10.3456 10.5696 10.3466 10.5696 10.348 10.5696C10.6494 10.5696 10.9879 10.6658 11.3456 10.8686L24.3306 18.2464L24.3303 18.2467L24.2476 18.3293Z" fill="url(#paint11_linear)"/>
<path d="M38.8858 13.0816C38.8962 13.9253 38.7272 14.6058 38.3799 15.1226H41.076V11.0996H38.8858V13.0816ZM37.6567 16.9097H37.0015V15.1226H37.523C37.9848 14.7246 38.2104 14.0448 38.2011 13.0816V10.4444H41.7618V15.1226H42.3574V16.9097H41.7018V15.7778H37.6567V16.9097Z" fill="white"/>
<path d="M38.8858 13.0817L38.797 13.0828L38.7977 13.1546C38.7973 13.9529 38.6306 14.5904 38.3059 15.073L38.213 15.2115H41.1649V11.0108H38.797V13.0824V13.0828L38.8858 13.0817H38.9747V11.1886H40.9872V15.0338H38.3799V15.1227L38.4536 15.172C38.8032 14.6518 38.9754 13.9768 38.9754 13.1546L38.9747 13.0806L38.8858 13.0817H38.9747H38.8858ZM37.6567 16.9098V16.8209H37.0904V15.2115H37.523H37.556L37.581 15.19C38.0615 14.7755 38.2904 14.0848 38.2904 13.14L38.29 13.081V13.0817V10.5334H41.673V15.2115H42.2685V16.8209H41.7907V15.7779V15.689H37.5678V16.9098H37.6567V16.8209V16.9098H37.7456V15.8667H41.613V16.9098V16.9987H42.3574H42.4463V15.0338H41.8507V10.3556H38.1122V13.082V13.0824L38.1126 13.14C38.1122 14.0598 37.8893 14.6907 37.465 15.0549L37.523 15.1227V15.0338H37.0015H36.9126V16.9987H37.6567H37.7456V16.9098H37.6567Z" fill="white"/>
<path d="M44.2973 14.6423C44.6924 15.0419 45.175 15.2415 45.7462 15.2415C46.3173 15.2415 46.8007 15.0419 47.1948 14.6423C47.59 14.2426 47.7878 13.7318 47.7878 13.1113C47.7878 12.4909 47.59 11.98 47.1948 11.5804C46.8007 11.1807 46.3173 10.9811 45.7462 10.9811C45.175 10.9811 44.6924 11.1807 44.2973 11.5804C43.9031 11.98 43.7053 12.4909 43.7053 13.1113C43.7053 13.7318 43.9031 14.2426 44.2973 14.6423ZM47.7018 15.0887C47.1774 15.6279 46.5257 15.8971 45.7462 15.8971C44.9667 15.8971 44.3146 15.6279 43.7913 15.0887C43.267 14.5502 43.0056 13.8909 43.0056 13.1113C43.0056 12.3318 43.267 11.6724 43.7913 11.1339C44.3146 10.5946 44.9667 10.3252 45.7462 10.3252C46.5212 10.3252 47.1716 10.596 47.6982 11.1374C48.2243 11.6787 48.4875 12.3367 48.4875 13.1113C48.4875 13.8909 48.2253 14.5502 47.7018 15.0887Z" fill="white"/>
<path d="M44.2973 14.6422L44.2341 14.7047C44.6434 15.1204 45.1542 15.3315 45.7463 15.3304C46.3379 15.3315 46.8497 15.1204 47.258 14.7047C47.6702 14.2887 47.8775 13.7505 47.8767 13.1113C47.8775 12.4721 47.6702 11.9339 47.258 11.5179C46.8497 11.1022 46.3379 10.8911 45.7463 10.8922C45.1542 10.8911 44.6434 11.1022 44.2341 11.5179C43.823 11.9339 43.6157 12.4721 43.6164 13.1113C43.6157 13.7505 43.823 14.2887 44.2341 14.7047L44.2973 14.6422L44.3608 14.5797C43.9837 14.196 43.7952 13.7133 43.7942 13.1113C43.7952 12.5093 43.9837 12.0266 44.3608 11.6429H44.3605C44.741 11.2592 45.1955 11.071 45.7463 11.07C46.2966 11.071 46.7521 11.2592 47.1316 11.6429L47.133 11.6443L47.1316 11.6429C47.5097 12.0266 47.698 12.5093 47.699 13.1113C47.698 13.7133 47.5097 14.196 47.1316 14.5797C46.7521 14.9634 46.2966 15.1516 45.7463 15.1526C45.1955 15.1516 44.741 14.9634 44.3605 14.5797L44.2973 14.6422ZM47.7018 15.0887L47.6383 15.0269C47.1288 15.5492 46.5053 15.8071 45.7463 15.8082C44.9869 15.8071 44.3636 15.5492 43.8549 15.0269C43.3465 14.5029 43.0955 13.871 43.0945 13.1113C43.0955 12.3516 43.3465 11.7197 43.8549 11.1957C44.3636 10.6734 44.9869 10.4151 45.7463 10.4141C46.5008 10.4151 47.1226 10.6745 47.6348 11.1995C48.1452 11.7259 48.3976 12.3568 48.3986 13.1113C48.3976 13.871 48.1459 14.5029 47.6383 15.0269L47.7018 15.0887L47.7656 15.1505C48.3046 14.5971 48.5771 13.9106 48.5764 13.1113C48.5771 12.3165 48.3039 11.6315 47.7622 11.0756C47.2205 10.5175 46.5421 10.2353 45.7463 10.2363C44.9463 10.2353 44.2656 10.5162 43.7275 11.0721V11.0717C43.1875 11.6255 42.916 12.312 42.9167 13.1113C42.916 13.9106 43.1875 14.5971 43.7275 15.1509V15.1505C44.2656 15.7064 44.9463 15.9867 45.7463 15.986C46.5459 15.9867 47.2264 15.7064 47.7656 15.1505L47.7018 15.0887Z" fill="white"/>
<path d="M51.9371 15.8971C51.1524 15.8971 50.4944 15.6315 49.9632 15.0999C49.4309 14.5687 49.1663 13.9057 49.1663 13.1113C49.1663 12.3168 49.4309 11.654 49.9632 11.1228C50.4944 10.5911 51.1524 10.3252 51.9371 10.3252C52.7409 10.3252 53.3944 10.6159 53.8961 11.1967L53.4187 11.6589C53.0569 11.2068 52.5621 10.9811 51.9371 10.9811C51.3555 10.9811 50.8648 11.1773 50.4655 11.5696C50.0655 11.962 49.8659 12.4759 49.8659 13.1113C49.8659 13.7467 50.0655 14.261 50.4655 14.653C50.8648 15.0454 51.3555 15.2415 51.9371 15.2415C52.5777 15.2415 53.1236 14.9835 53.5759 14.4672L54.0524 14.9436C53.8087 15.2367 53.5038 15.4689 53.1357 15.6398C52.7687 15.8113 52.3684 15.8971 51.9371 15.8971Z" fill="white"/>
<path d="M51.9371 15.8971V15.8082C51.1722 15.8071 50.542 15.5519 50.026 15.037C49.5104 14.5213 49.2559 13.886 49.2552 13.1113C49.2559 12.3366 49.5104 11.7013 50.026 11.1856C50.542 10.6703 51.1722 10.4151 51.9371 10.4141C52.7198 10.4155 53.342 10.6925 53.8288 11.2547L53.8962 11.1967L53.8344 11.1328L53.357 11.5953L53.4187 11.6589L53.4882 11.6033C53.1111 11.1304 52.583 10.8909 51.9371 10.8922C51.3354 10.8915 50.8177 11.0981 50.4034 11.5061C49.985 11.9155 49.776 12.4578 49.777 13.1113C49.776 13.7648 49.985 14.3078 50.4034 14.7165C50.8177 15.1245 51.3354 15.3311 51.9371 15.3304C52.602 15.3315 53.1781 15.0585 53.6426 14.5259L53.576 14.4672L53.5131 14.5301L53.9896 15.0064L54.0524 14.9436L53.984 14.887C53.7486 15.1696 53.4555 15.3933 53.0982 15.5592C52.743 15.7252 52.357 15.8078 51.9371 15.8082V15.8971V15.986C52.3802 15.986 52.7941 15.8978 53.1732 15.7204C53.5524 15.5446 53.8684 15.304 54.1208 15.0005L54.1725 14.9384L53.6389 14.4044L53.5715 14.337L53.509 14.4085C53.0694 14.9089 52.5535 15.1516 51.9371 15.1526C51.3754 15.1516 50.9125 14.9661 50.5281 14.5894H50.5278C50.1458 14.2144 49.9555 13.7286 49.9548 13.1113C49.9555 12.494 50.1458 12.0089 50.5278 11.6332H50.5281C50.9125 11.2565 51.3754 11.071 51.9371 11.07C52.541 11.0714 53.0024 11.2832 53.3493 11.7144L53.4104 11.7909L53.9579 11.2606L54.0184 11.2022L53.9635 11.1388C53.4472 10.5388 52.7621 10.2353 51.9371 10.2363C51.1322 10.2356 50.4465 10.5124 49.9003 11.0599C49.3514 11.6064 49.0763 12.2974 49.0774 13.1113C49.0763 13.9252 49.3514 14.6162 49.9003 15.163C50.4465 15.7102 51.1322 15.9867 51.9371 15.986V15.8971Z" fill="white"/>
<path d="M56.8242 15.7778H56.1385V11.0997H54.6489V10.4445H58.3138V11.0997H56.8242V15.7778Z" fill="white"/>
<path d="M56.8242 15.7778V15.6889H56.2274V11.0108H54.7378V10.5334H58.2249V11.0108H56.7353V15.7778H56.8242V15.6889V15.7778H56.9131V11.1886H58.4027V10.4445V10.3556H54.5601V11.0997V11.1886H56.0497V15.8667H56.8242H56.9131V15.7778H56.8242Z" fill="white"/>
<path d="M63.0191 10.4447L61.001 14.9436C60.7222 15.5794 60.3087 15.8971 59.7573 15.8971C59.5934 15.8971 59.4169 15.8575 59.2278 15.778L59.4065 15.1447C59.5211 15.2095 59.6402 15.2415 59.7642 15.2415C59.9233 15.2415 60.0465 15.2106 60.1333 15.1488C60.2201 15.0867 60.3007 14.9731 60.3753 14.8095L60.569 14.3846L58.7739 10.4447H59.5785L60.8969 13.5061H60.9264L62.2142 10.4447H63.0191Z" fill="white"/>
<path d="M63.0191 10.4445L62.9379 10.4081L60.9198 14.9073L60.9195 14.908C60.6452 15.5243 60.2705 15.8049 59.7573 15.808C59.6077 15.808 59.443 15.772 59.2621 15.6959L59.2278 15.7778L59.3135 15.8021L59.492 15.1688L59.4066 15.1445L59.3632 15.2219C59.4896 15.2935 59.6246 15.3306 59.7643 15.3303C59.9341 15.3303 60.0764 15.298 60.1851 15.2208C60.292 15.1434 60.3778 15.0174 60.4563 14.8465L60.6501 14.4216L60.6667 14.3844L58.9122 10.5334H59.5202L60.8382 13.5948H60.9264H60.9854L62.2733 10.5334H63.0191V10.4445L62.9379 10.4081L63.0191 10.4445V10.3556H62.2142H62.1552L60.8441 13.4716L60.9264 13.5059V13.417H60.8969V13.5059L60.9785 13.4709L59.6372 10.3556H58.774H58.6357L60.4712 14.3844L60.2945 14.7726C60.224 14.9285 60.1483 15.0292 60.0816 15.076C60.0167 15.123 59.9122 15.1528 59.7643 15.1525C59.6556 15.1525 59.5532 15.125 59.4503 15.0671L59.3517 15.0115L59.1424 15.7536L59.1208 15.8292L59.1934 15.8598C59.3909 15.9427 59.5789 15.9858 59.7573 15.9858C60.3465 15.9886 60.7993 15.6337 61.0823 14.9792L61.082 14.9799L63.1563 10.3556H63.0191V10.4445Z" fill="white"/>
<path d="M63.7952 15.7778V10.4445H67.6538V15.7778H66.9681V11.0997H64.4799V15.7778H63.7952Z" fill="white"/>
<path d="M63.7952 15.7778H63.8841V10.5334H67.5647V15.6889H67.0571V11.0108H64.391V15.6889H63.7952V15.7778H63.8841H63.7952V15.8667H64.4799H64.5688V11.1886H66.8793V15.8667H67.6539H67.7427V10.3556H63.7063V15.8667H63.7952V15.7778Z" fill="white"/>
<path d="M68.875 15.7778V10.4445H69.5601V12.731H72.2267V10.4445H72.9125V15.7778H72.2267V13.3716H69.5601V15.7778H68.875Z" fill="white"/>
<path d="M68.875 15.7778H68.9639V10.5334H69.4712V12.8199H72.3156V10.5334H72.8236V15.6889H72.3156V13.2827H69.4712V15.6889H68.875V15.7778H68.9639H68.875V15.8667H69.5601H69.649V13.4605H72.1379V15.8667H72.9125H73.0014V10.3556H72.2268H72.1379V12.6421H69.649V10.3556H68.875H68.7861V15.8667H68.875V15.7778Z" fill="white"/>
<path d="M75.091 14.6423C75.4862 15.0419 75.9687 15.2415 76.5399 15.2415C77.1111 15.2415 77.5945 15.0419 77.9886 14.6423C78.3837 14.2426 78.5816 13.7318 78.5816 13.1113C78.5816 12.4909 78.3837 11.98 77.9886 11.5804C77.5945 11.1807 77.1111 10.9811 76.5399 10.9811C75.9687 10.9811 75.4862 11.1807 75.091 11.5804C74.6973 11.98 74.499 12.4909 74.499 13.1113C74.499 13.7318 74.6973 14.2426 75.091 14.6423ZM78.4955 15.0887C77.9716 15.6279 77.3195 15.8971 76.5399 15.8971C75.7605 15.8971 75.1087 15.6279 74.5851 15.0887C74.0608 14.5502 73.7993 13.8909 73.7993 13.1113C73.7993 12.3318 74.0608 11.6724 74.5851 11.1339C75.1087 10.5946 75.7605 10.3252 76.5399 10.3252C77.3153 10.3252 77.9653 10.596 78.492 11.1374C79.0181 11.6787 79.2813 12.3367 79.2813 13.1113C79.2813 13.8909 79.0191 14.5502 78.4955 15.0887Z" fill="white"/>
<path d="M75.091 14.6422L75.0279 14.7047C75.4376 15.1204 75.948 15.3315 76.54 15.3304C77.132 15.3315 77.6434 15.1204 78.0521 14.7047C78.464 14.2887 78.6712 13.7505 78.6705 13.1113C78.6712 12.4721 78.464 11.9339 78.0521 11.5179C77.6434 11.1022 77.132 10.8911 76.54 10.8922C75.948 10.8911 75.4376 11.1022 75.0279 11.5179C74.6168 11.9339 74.4094 12.4721 74.4101 13.1113C74.4094 13.7505 74.6168 14.2887 75.0279 14.7047L75.091 14.6422L75.1545 14.5797C74.7775 14.196 74.5889 13.7133 74.5879 13.1113C74.5889 12.5093 74.7775 12.0266 75.1545 11.6429C75.5348 11.2592 75.9896 11.071 76.54 11.07C77.0904 11.071 77.5459 11.2592 77.9254 11.6429L77.9281 11.6457L77.9254 11.6429C78.3035 12.0266 78.492 12.5093 78.4928 13.1113C78.492 13.7133 78.3035 14.196 77.9254 14.5797C77.5459 14.9634 77.0904 15.1516 76.54 15.1526C75.9896 15.1516 75.5348 14.9634 75.1545 14.5797L75.091 14.6422ZM78.4955 15.0887L78.432 15.0269C77.9226 15.5492 77.299 15.8071 76.54 15.8082C75.7809 15.8071 75.1574 15.5492 74.649 15.0269L74.6463 15.0242L74.649 15.0269C74.1403 14.5029 73.8893 13.871 73.8882 13.1113C73.8893 12.3516 74.1403 11.7197 74.649 11.1957C75.1574 10.6734 75.7809 10.4151 76.54 10.4141C77.2945 10.4151 77.9164 10.6745 78.4285 11.1995C78.939 11.7259 79.1917 12.3568 79.1924 13.1113C79.1917 13.871 78.9396 14.5029 78.432 15.0269L78.4955 15.0887L78.5594 15.1505C79.0986 14.5971 79.3709 13.9106 79.3702 13.1113C79.3709 12.3165 79.0976 11.6315 78.556 11.0756C78.0143 10.5175 77.3358 10.2353 76.54 10.2363C75.74 10.2353 75.0598 10.5162 74.5212 11.0721V11.0717C73.9813 11.6255 73.7097 12.312 73.7105 13.1113C73.7097 13.9106 73.9813 14.5971 74.5212 15.1509V15.1505C75.0598 15.7064 75.74 15.9867 76.54 15.986C77.34 15.9867 78.0202 15.7064 78.5594 15.1505L78.4955 15.0887Z" fill="white"/>
<path d="M82.7679 15.1226H84.1466C84.4097 15.1226 84.623 15.0306 84.7875 14.8463C84.951 14.6633 85.0328 14.4618 85.0328 14.2431C85.0328 14.0247 84.9484 13.825 84.7795 13.6438C84.6115 13.4625 84.3893 13.3716 84.1164 13.3716H82.7679V15.1226ZM82.7679 12.731H84.0124C84.271 12.731 84.4782 12.6459 84.6346 12.474C84.791 12.3028 84.8693 12.1157 84.8693 11.9119C84.8693 11.7084 84.7937 11.5216 84.6417 11.3536C84.4906 11.1844 84.2906 11.0997 84.0426 11.0997H82.7679V12.731ZM82.0835 15.7778V10.4445H84.0124C84.4293 10.4445 84.791 10.5827 85.0959 10.8577C85.4017 11.1337 85.5546 11.4799 85.5546 11.8969C85.5546 12.15 85.4888 12.3737 85.3564 12.5674C85.2257 12.7611 85.0506 12.9077 84.8319 13.007V13.0365C85.0942 13.1257 85.311 13.2799 85.4799 13.4983C85.6479 13.717 85.7333 13.9705 85.7333 14.2584C85.7333 14.6952 85.5733 15.0577 85.2524 15.3456C84.9324 15.6337 84.5537 15.7778 84.1164 15.7778H82.0835Z" fill="white"/>
<path d="M82.768 15.1226V15.2115H84.1466C84.4302 15.2126 84.6746 15.1084 84.8533 14.9055C85.0293 14.7101 85.1226 14.4844 85.1217 14.2431C85.1226 14.0015 85.0257 13.7767 84.8444 13.5831C84.6604 13.3833 84.4089 13.2816 84.1164 13.2827H82.6791V15.2115H82.768V15.1226H82.8569V13.4605H84.1164C84.3706 13.4615 84.5617 13.5421 84.7146 13.7042C84.8711 13.8736 84.9431 14.0483 84.944 14.2431C84.9431 14.4392 84.8728 14.6164 84.7208 14.7871C84.5724 14.9525 84.3893 15.0323 84.1466 15.0337H82.768V15.1226H82.8569H82.768ZM82.768 12.731V12.8199H84.0124C84.2897 12.8208 84.528 12.725 84.7004 12.5337V12.5341C84.8684 12.3507 84.9582 12.1389 84.9582 11.9119C84.9582 11.6862 84.872 11.4751 84.7075 11.2938V11.2942C84.5413 11.1059 84.3102 11.0097 84.0426 11.0108H82.6791V12.8199H82.768V12.731H82.8569V11.1886H84.0426C84.2711 11.19 84.44 11.2629 84.5751 11.4126L84.576 11.4132L84.5751 11.4129C84.7146 11.5685 84.7795 11.731 84.7804 11.9119C84.7795 12.092 84.7128 12.2552 84.5688 12.4139V12.4143C84.4284 12.5667 84.2515 12.641 84.0124 12.6421H82.768V12.731H82.8569H82.768ZM82.0835 15.7778H82.1724V10.5334H84.0124C84.4097 10.5341 84.7457 10.6625 85.0364 10.9237C85.3253 11.1855 85.4648 11.5018 85.4657 11.8969C85.4657 12.1348 85.4044 12.3386 85.2835 12.5174C85.1608 12.698 84.9999 12.8327 84.7946 12.9261L84.7431 12.9497V13.0365V13.1L84.8026 13.1205C85.0506 13.2053 85.2506 13.3476 85.4097 13.5528L85.4106 13.5538L85.4097 13.5525C85.5662 13.7567 85.6444 13.9879 85.6444 14.2583C85.6435 14.6736 85.496 15.0059 85.1928 15.2796C84.8871 15.5535 84.5342 15.6882 84.1164 15.6889H82.0835V15.7778H82.1724H82.0835V15.8667H84.1164C84.5733 15.8674 84.9768 15.7139 85.312 15.4115C85.6497 15.1097 85.8231 14.717 85.8222 14.2583C85.8231 13.9532 85.7306 13.6775 85.5502 13.4441L85.5493 13.4431L85.5502 13.4438C85.3715 13.2126 85.1386 13.0465 84.8604 12.9525L84.832 13.0365H84.9208V13.007H84.832L84.8684 13.0879C85.1004 12.9827 85.2906 12.8247 85.4302 12.617V12.6174C85.5724 12.4087 85.6435 12.1653 85.6435 11.8969C85.6444 11.4583 85.4791 11.082 85.1555 10.7917L85.1537 10.79L85.1555 10.7917C84.8355 10.5024 84.4488 10.3549 84.0124 10.3556H81.9946V15.8667H82.0835V15.7778Z" fill="white"/>
</g>
<defs>
<linearGradient id="paint0_linear" x1="19.5999" y1="11.9643" x2="4.68213" y2="26.882" gradientUnits="userSpaceOnUse">
<stop stop-color="#00A0FF"/>
<stop offset="0.00657445" stop-color="#00A1FF"/>
<stop offset="0.2601" stop-color="#00BEFF"/>
<stop offset="0.5122" stop-color="#00D2FF"/>
<stop offset="0.7604" stop-color="#00DFFF"/>
<stop offset="1" stop-color="#00E3FF"/>
</linearGradient>
<linearGradient id="paint1_linear" x1="30.2973" y1="22.0014" x2="8.78887" y2="22.0014" gradientUnits="userSpaceOnUse">
<stop stop-color="#FFE000"/>
<stop offset="0.4087" stop-color="#FFBD00"/>
<stop offset="0.7754" stop-color="#FFA500"/>
<stop offset="1" stop-color="#FF9C00"/>
</linearGradient>
<linearGradient id="paint2_linear" x1="22.2908" y1="24.0411" x2="2.06118" y2="44.2707" gradientUnits="userSpaceOnUse">
<stop stop-color="#FF3A44"/>
<stop offset="1" stop-color="#C31162"/>
</linearGradient>
<linearGradient id="paint3_linear" x1="6.70874" y1="4.37901" x2="15.7421" y2="13.4123" gradientUnits="userSpaceOnUse">
<stop stop-color="#32A071"/>
<stop offset="0.0685" stop-color="#2DA771"/>
<stop offset="0.4762" stop-color="#15CF74"/>
<stop offset="0.8009" stop-color="#06E775"/>
<stop offset="1" stop-color="#00F076"/>
</linearGradient>
<linearGradient id="paint4_linear" x1="30.2972" y1="22.0013" x2="8.78892" y2="22.0013" gradientUnits="userSpaceOnUse">
<stop stop-color="#CCB300"/>
<stop offset="0.4087" stop-color="#CC9700"/>
<stop offset="0.7754" stop-color="#CC8400"/>
<stop offset="1" stop-color="#CC7D00"/>
</linearGradient>
<linearGradient id="paint5_linear" x1="22.2907" y1="24.0411" x2="2.06117" y2="44.2707" gradientUnits="userSpaceOnUse">
<stop stop-color="#CC2E36"/>
<stop offset="1" stop-color="#9C0E4E"/>
</linearGradient>
<linearGradient id="paint6_linear" x1="19.5999" y1="11.9644" x2="4.68213" y2="26.8821" gradientUnits="userSpaceOnUse">
<stop stop-color="#008DE0"/>
<stop offset="0.00657445" stop-color="#008DE0"/>
<stop offset="0.2601" stop-color="#00A7E0"/>
<stop offset="0.5122" stop-color="#00B8E0"/>
<stop offset="0.7604" stop-color="#00C4E0"/>
<stop offset="1" stop-color="#00C7E0"/>
</linearGradient>
<linearGradient id="paint7_linear" x1="22.291" y1="24.0412" x2="2.06146" y2="44.2712" gradientUnits="userSpaceOnUse">
<stop stop-color="#E0333C"/>
<stop offset="1" stop-color="#AB0F56"/>
</linearGradient>
<linearGradient id="paint8_linear" x1="30.2971" y1="22.0013" x2="8.7887" y2="22.0013" gradientUnits="userSpaceOnUse">
<stop stop-color="#E0C500"/>
<stop offset="0.4087" stop-color="#E0A600"/>
<stop offset="0.7754" stop-color="#E09100"/>
<stop offset="1" stop-color="#E08900"/>
</linearGradient>
<linearGradient id="paint9_linear" x1="30.2972" y1="22.0014" x2="8.78882" y2="22.0014" gradientUnits="userSpaceOnUse">
<stop stop-color="#FFE840"/>
<stop offset="0.4087" stop-color="#FFCE40"/>
<stop offset="0.7754" stop-color="#FFBC40"/>
<stop offset="1" stop-color="#FFB540"/>
</linearGradient>
<linearGradient id="paint10_linear" x1="19.5998" y1="11.9643" x2="4.6821" y2="26.882" gradientUnits="userSpaceOnUse">
<stop stop-color="#40B8FF"/>
<stop offset="0.00657445" stop-color="#40B9FF"/>
<stop offset="0.2601" stop-color="#40CEFF"/>
<stop offset="0.5122" stop-color="#40DDFF"/>
<stop offset="0.7604" stop-color="#40E7FF"/>
<stop offset="1" stop-color="#40EAFF"/>
</linearGradient>
<linearGradient id="paint11_linear" x1="6.70878" y1="4.37906" x2="15.7421" y2="13.4124" gradientUnits="userSpaceOnUse">
<stop stop-color="#65B895"/>
<stop offset="0.0685" stop-color="#62BD95"/>
<stop offset="0.4762" stop-color="#50DB97"/>
<stop offset="0.8009" stop-color="#44ED98"/>
<stop offset="1" stop-color="#40F498"/>
</linearGradient>
<clipPath id="clip0">
<rect width="120" height="40" fill="white"/>
</clipPath>
</defs>
</svg>
