<svg width="120" height="40" viewBox="0 0 120 40" fill="none" xmlns="http://www.w3.org/2000/svg">
<g clip-path="url(#clip0)">
<path d="M110.444 7.92972e-06H9.56145C9.19372 7.92972e-06 8.8304 7.92978e-06 8.46364 0.00200793C8.15663 0.00400793 7.85207 0.00981793 7.54211 0.0147079C6.86874 0.0226097 6.19695 0.0816842 5.53259 0.191418C4.86915 0.303541 4.2265 0.514924 3.62637 0.818418C3.02697 1.12448 2.47929 1.52218 2.00318 1.99708C1.52457 2.47065 1.12561 3.01802 0.82165 3.61817C0.516847 4.21712 0.305496 4.85895 0.194896 5.52149C0.083244 6.18319 0.0231632 6.85253 0.0151925 7.52349C0.00588648 7.83009 0.00490373 8.13771 0 8.44435V31.5586C0.00490373 31.8691 0.00588648 32.1699 0.0151925 32.4805C0.0231657 33.1514 0.0832464 33.8207 0.194896 34.4824C0.30519 35.1453 0.516554 35.7875 0.82165 36.3867C1.12548 36.9849 1.52449 37.5301 2.00318 38.001C2.47748 38.478 3.02552 38.876 3.62637 39.1797C4.2265 39.484 4.86908 39.6967 5.53259 39.8105C6.19707 39.9194 6.86879 39.9785 7.54211 39.9873C7.85207 39.9941 8.15663 39.998 8.46364 39.998C8.83039 40 9.19374 40 9.56145 40H110.444C110.804 40 111.171 40 111.531 39.998C111.837 39.998 112.15 39.9941 112.455 39.9873C113.128 39.9789 113.798 39.9198 114.461 39.8105C115.127 39.6959 115.772 39.4833 116.375 39.1797C116.975 38.8758 117.522 38.4779 117.996 38.001C118.474 37.5282 118.874 36.9835 119.181 36.3867C119.484 35.7871 119.693 35.145 119.802 34.4824C119.914 33.8207 119.976 33.1515 119.988 32.4805C119.992 32.1699 119.992 31.8691 119.992 31.5586C120 31.1953 120 30.834 120 30.4648V9.53614C120 9.16993 120 8.80665 119.992 8.44435C119.992 8.13771 119.992 7.83009 119.988 7.52345C119.976 6.85243 119.914 6.18325 119.802 5.52145C119.693 4.85929 119.484 4.21751 119.181 3.61813C118.562 2.4152 117.581 1.43603 116.375 0.818328C115.772 0.515575 115.127 0.304248 114.461 0.191328C113.798 0.0811107 113.128 0.0220157 112.455 0.0145679C112.15 0.00968793 111.837 0.00382793 111.531 0.00187793C111.171 -0.00012207 110.804 -0.00012207 110.444 -0.00012207V7.92972e-06Z" fill="#A6A6A6"/>
<path d="M8.46856 39.125C8.16303 39.125 7.86487 39.1211 7.56174 39.1143C6.93376 39.1061 6.30725 39.0516 5.68735 38.9512C5.10932 38.8519 4.54937 38.6673 4.02596 38.4033C3.50735 38.1415 3.03433 37.7983 2.62504 37.3867C2.20981 36.98 1.86412 36.5082 1.60166 35.9902C1.33631 35.4688 1.15267 34.9099 1.05714 34.333C0.953972 33.7131 0.898156 33.0863 0.890169 32.458C0.883812 32.2471 0.875488 31.5449 0.875488 31.5449V8.44434C0.875488 8.44434 0.884353 7.75293 0.89022 7.5498C0.897867 6.92248 0.953358 6.29665 1.05621 5.67773C1.15192 5.09925 1.3357 4.53875 1.6012 4.01563C1.8627 3.49794 2.20647 3.02586 2.61919 2.61768C3.03145 2.20562 3.50597 1.8606 4.02547 1.59521C4.54767 1.33209 5.10657 1.14873 5.68343 1.05127C6.30537 0.949836 6.93405 0.894996 7.5642 0.88721L8.46906 0.875H111.526L112.442 0.8877C113.066 0.895099 113.689 0.94945 114.305 1.05029C114.888 1.14898 115.453 1.33362 115.981 1.59814C117.022 2.13299 117.869 2.97916 118.403 4.01807C118.664 4.53758 118.845 5.09351 118.939 5.66699C119.044 6.29099 119.102 6.92174 119.114 7.5542C119.117 7.8374 119.117 8.1416 119.117 8.44434C119.125 8.81934 119.125 9.17627 119.125 9.53613V30.4648C119.125 30.8281 119.125 31.1826 119.117 31.54C119.117 31.8652 119.117 32.1631 119.113 32.4697C119.101 33.0909 119.044 33.7104 118.941 34.3232C118.848 34.9043 118.665 35.4675 118.4 35.9932C118.136 36.5056 117.792 36.9733 117.381 37.3789C116.972 37.7927 116.498 38.1379 115.978 38.4014C115.451 38.6674 114.887 38.8527 114.305 38.9512C113.686 39.0522 113.059 39.1067 112.431 39.1143C112.137 39.1211 111.83 39.125 111.531 39.125L110.444 39.127L8.46856 39.125Z" fill="black"/>
<path d="M24.8384 20.3007C24.8491 19.466 25.0715 18.6477 25.4847 17.9217C25.8978 17.1957 26.4884 16.5858 27.2015 16.1486C26.7485 15.5035 26.1509 14.9725 25.4561 14.598C24.7614 14.2234 23.9886 14.0156 23.1992 13.991C21.5152 13.8147 19.8827 14.9958 19.0246 14.9958C18.1499 14.9958 16.8287 14.0085 15.406 14.0376C14.4857 14.0673 13.5889 14.3341 12.8028 14.8122C12.0167 15.2903 11.3682 15.9632 10.9205 16.7655C8.98105 20.1139 10.4277 25.035 12.2855 27.7416C13.215 29.0669 14.3013 30.5474 15.7228 30.4949C17.1137 30.4374 17.6332 29.6104 19.3122 29.6104C20.9756 29.6104 21.463 30.4949 22.9133 30.4615C24.4058 30.4374 25.3462 29.1303 26.2431 27.7924C26.911 26.848 27.4249 25.8043 27.7658 24.6999C26.8987 24.3341 26.1587 23.722 25.6381 22.9397C25.1175 22.1574 24.8394 21.2396 24.8384 20.3007Z" fill="white"/>
<path d="M22.0992 12.2108C22.913 11.2366 23.3139 9.98445 23.2168 8.72021C21.9735 8.85044 20.825 9.44299 20.0002 10.3798C19.597 10.8375 19.2881 11.3699 19.0913 11.9467C18.8945 12.5235 18.8136 13.1333 18.8533 13.7412C19.4752 13.7476 20.0904 13.6132 20.6527 13.3481C21.2149 13.083 21.7095 12.6942 22.0992 12.2108Z" fill="white"/>
<path d="M42.421 27.1395H37.6743L36.5344 30.496H34.5239L39.0199 18.078H41.1088L45.6048 30.496H43.56L42.421 27.1395ZM38.166 25.5907H41.9285L40.0737 20.1435H40.0218L38.166 25.5907Z" fill="white"/>
<path d="M55.3145 25.9697C55.3145 28.7832 53.8044 30.5908 51.5256 30.5908C50.9483 30.6209 50.3742 30.4883 49.869 30.2082C49.3638 29.928 48.9479 29.5117 48.6689 29.0068H48.6258V33.4912H46.7622V21.4423H48.5661V22.9482H48.6004C48.8922 22.4457 49.3151 22.0316 49.8241 21.7497C50.3332 21.4679 50.9093 21.3289 51.4913 21.3476C53.7956 21.3476 55.3145 23.164 55.3145 25.9697ZM53.399 25.9697C53.399 24.1367 52.449 22.9316 50.9997 22.9316C49.5758 22.9316 48.618 24.1621 48.618 25.9697C48.618 27.7939 49.5758 29.0156 50.9997 29.0156C52.4491 29.0156 53.399 27.8193 53.399 25.9697Z" fill="white"/>
<path d="M65.3074 25.9697C65.3074 28.7832 63.7973 30.5908 61.5185 30.5908C60.9412 30.6209 60.3671 30.4883 59.8619 30.2081C59.3567 29.928 58.9408 29.5117 58.6619 29.0068H58.6187V33.4912H56.7551V21.4423H58.559V22.9482H58.5933C58.885 22.4457 59.308 22.0315 59.817 21.7497C60.3261 21.4679 60.9022 21.3289 61.4842 21.3476C63.7885 21.3476 65.3074 23.164 65.3074 25.9697ZM63.3919 25.9697C63.3919 24.1367 62.442 22.9316 60.9926 22.9316C59.5687 22.9316 58.6109 24.1621 58.6109 25.9697C58.6109 27.7939 59.5687 29.0156 60.9926 29.0156C62.442 29.0156 63.3919 27.8193 63.3919 25.9697H63.3919Z" fill="white"/>
<path d="M71.9119 27.0361C72.05 28.2675 73.2496 29.0761 74.889 29.0761C76.4598 29.0761 77.5899 28.2675 77.5899 27.1571C77.5899 26.1932 76.9083 25.6161 75.2944 25.2206L73.6805 24.8329C71.3938 24.2821 70.3322 23.2157 70.3322 21.4852C70.3322 19.3427 72.2047 17.871 74.8635 17.871C77.4949 17.871 79.2988 19.3427 79.3595 21.4852H77.4782C77.3656 20.246 76.3383 19.4979 74.837 19.4979C73.3358 19.4979 72.3085 20.2548 72.3085 21.3563C72.3085 22.2343 72.9646 22.7509 74.5697 23.1463L75.9417 23.4823C78.4967 24.0848 79.5583 25.1083 79.5583 26.9246C79.5583 29.2479 77.7025 30.703 74.7508 30.703C71.9892 30.703 70.1246 29.2821 70.0042 27.036L71.9119 27.0361Z" fill="white"/>
<path d="M83.5802 19.2998V21.4424H85.3067V22.9141H83.5802V27.9053C83.5802 28.6807 83.9259 29.042 84.6849 29.042C84.8898 29.0384 85.0945 29.0241 85.2979 28.999V30.4619C84.9567 30.5255 84.6099 30.5543 84.2628 30.5478C82.4246 30.5478 81.7078 29.8593 81.7078 28.1035V22.9141H80.3877V21.4424H81.7078V19.2998H83.5802Z" fill="white"/>
<path d="M86.3066 25.9697C86.3066 23.1211 87.9891 21.3311 90.6126 21.3311C93.245 21.3311 94.9196 23.1211 94.9196 25.9697C94.9196 28.8262 93.2538 30.6084 90.6126 30.6084C87.9724 30.6084 86.3066 28.8262 86.3066 25.9697ZM93.0207 25.9697C93.0207 24.0156 92.1227 22.8623 90.6126 22.8623C89.1025 22.8623 88.2055 24.0244 88.2055 25.9697C88.2055 27.9316 89.1025 29.0762 90.6126 29.0762C92.1227 29.0762 93.0207 27.9316 93.0207 25.9697H93.0207Z" fill="white"/>
<path d="M96.4561 21.4424H98.2335V22.9834H98.2766C98.3969 22.5021 98.6796 22.0768 99.0773 21.7789C99.475 21.481 99.9634 21.3287 100.46 21.3476C100.675 21.3469 100.889 21.3702 101.099 21.417V23.1553C100.828 23.0726 100.545 23.0347 100.262 23.043C99.9909 23.032 99.721 23.0796 99.4705 23.1825C99.2199 23.2854 98.9947 23.4411 98.8102 23.639C98.6257 23.8369 98.4863 24.0723 98.4016 24.3289C98.317 24.5856 98.289 24.8575 98.3197 25.126V30.4961H96.4561L96.4561 21.4424Z" fill="white"/>
<path d="M109.691 27.8369C109.441 29.4805 107.836 30.6084 105.782 30.6084C103.141 30.6084 101.501 28.8437 101.501 26.0127C101.501 23.1729 103.15 21.3311 105.704 21.3311C108.216 21.3311 109.795 23.0518 109.795 25.7969V26.4336H103.383V26.5459C103.353 26.8791 103.395 27.2148 103.505 27.5306C103.616 27.8464 103.793 28.1352 104.024 28.3778C104.255 28.6203 104.535 28.8111 104.845 28.9374C105.156 29.0637 105.49 29.1227 105.825 29.1103C106.265 29.1515 106.707 29.0498 107.085 28.8203C107.463 28.5909 107.756 28.246 107.922 27.8369L109.691 27.8369ZM103.392 25.1348H107.931C107.947 24.8352 107.902 24.5354 107.797 24.2541C107.692 23.9729 107.53 23.7164 107.321 23.5006C107.111 23.2849 106.86 23.1145 106.582 23.0003C106.303 22.8861 106.004 22.8305 105.704 22.8369C105.4 22.8351 105.099 22.8933 104.819 23.008C104.538 23.1227 104.282 23.2918 104.067 23.5054C103.852 23.7191 103.682 23.973 103.566 24.2527C103.45 24.5323 103.391 24.8321 103.392 25.1348V25.1348Z" fill="white"/>
<path d="M36.8415 11.2534H37.6416C37.7794 11.2705 37.9192 11.259 38.0522 11.2195C38.1852 11.1801 38.3086 11.1136 38.4146 11.0242C38.5206 10.9348 38.6069 10.8246 38.668 10.7003C38.7292 10.576 38.7638 10.4405 38.7698 10.3022C38.7698 9.75193 38.3546 9.39646 37.6504 9.39646C37.5093 9.3768 37.3657 9.38553 37.228 9.42214C37.0904 9.45875 36.9615 9.52249 36.8489 9.60961C36.7363 9.69672 36.6424 9.80544 36.5727 9.92935C36.503 10.0533 36.4589 10.1898 36.443 10.331H35.5645C35.5796 10.0747 35.6475 9.82428 35.7639 9.59527C35.8803 9.36626 36.0427 9.16359 36.241 8.99989C36.4394 8.83618 36.6694 8.71494 36.9167 8.64372C37.1641 8.5725 37.4235 8.55282 37.6788 8.58591C38.8569 8.58591 39.6864 9.24362 39.6864 10.1904C39.6892 10.5076 39.5828 10.8161 39.385 11.0645C39.1871 11.3129 38.9098 11.486 38.5994 11.5551V11.6255C38.9674 11.6417 39.314 11.8027 39.5634 12.073C39.8128 12.3434 39.9447 12.7013 39.9303 13.0683C39.903 13.3322 39.8233 13.588 39.6956 13.8208C39.5679 14.0535 39.395 14.2585 39.1868 14.4237C38.9787 14.5889 38.7396 14.7111 38.4835 14.7829C38.2274 14.8548 37.9595 14.875 37.6955 14.8423C37.4309 14.8782 37.1618 14.8607 36.9042 14.7907C36.6466 14.7208 36.4058 14.5998 36.196 14.4351C35.9863 14.2703 35.812 14.0651 35.6834 13.8317C35.5549 13.5983 35.4749 13.3415 35.448 13.0766H36.3401C36.394 13.6474 36.9199 14.0156 37.6955 14.0156C38.4711 14.0156 38.9774 13.6021 38.9774 13.0191C38.9774 12.4277 38.5005 12.0635 37.6671 12.0635H36.8415V11.2534Z" fill="white"/>
<path d="M40.9438 13.4244C40.9438 12.6139 41.55 12.1466 42.6234 12.0802L43.8465 12.0099V11.6212C43.8465 11.1456 43.5321 10.8771 42.922 10.8771C42.4246 10.8771 42.0808 11.0592 41.9809 11.3776H41.1182C41.2092 10.6041 41.9398 10.108 42.9642 10.108C44.0962 10.108 44.7347 10.67 44.7347 11.6212V14.6979H43.8759V14.0651H43.8054C43.6623 14.2921 43.4613 14.4771 43.223 14.6013C42.9847 14.7255 42.7176 14.7844 42.449 14.7721C42.2595 14.7917 42.0679 14.7716 41.8866 14.7129C41.7053 14.6542 41.5384 14.5582 41.3966 14.4313C41.2548 14.3043 41.1412 14.1491 41.0633 13.9757C40.9853 13.8023 40.9446 13.6145 40.9438 13.4244ZM43.8465 13.0397V12.6632L42.7438 12.7335C42.1219 12.775 41.8399 12.986 41.8399 13.3829C41.8399 13.7882 42.1924 14.024 42.6772 14.024C42.8193 14.0384 42.9627 14.0241 43.0991 13.982C43.2355 13.9399 43.362 13.8709 43.4711 13.779C43.5802 13.6872 43.6697 13.5744 43.7342 13.4474C43.7987 13.3204 43.8369 13.1817 43.8465 13.0397Z" fill="white"/>
<path d="M47.0997 10.9429V14.6978H46.2085V10.1948H49.1817V10.9428L47.0997 10.9429Z" fill="white"/>
<path d="M54.5826 12.4442C54.5826 13.8748 53.8569 14.7718 52.717 14.7718C52.4372 14.7909 52.1578 14.7298 51.9116 14.5958C51.6654 14.4618 51.4627 14.2605 51.3274 14.0155H51.2569V16.1947H50.3657V10.1947H51.2236V10.9388H51.2902C51.4279 10.6853 51.6332 10.4746 51.8835 10.3301C52.1337 10.1856 52.4191 10.1129 52.7082 10.12C53.8569 10.12 54.5826 11.013 54.5826 12.4442ZM53.666 12.4442C53.666 11.493 53.2145 10.9183 52.4595 10.9183C51.7094 10.9183 51.2403 11.5052 51.2403 12.4481C51.2403 13.3866 51.7093 13.974 52.4556 13.974C53.2145 13.974 53.666 13.3992 53.666 12.4442Z" fill="white"/>
<path d="M55.7696 16.3106V15.5454C55.8661 15.5576 55.9632 15.5632 56.0604 15.562C56.2503 15.576 56.4387 15.5197 56.5894 15.4037C56.7402 15.2877 56.8426 15.1203 56.8772 14.9336L56.9438 14.7144L55.3093 10.1948H56.2798L57.4119 13.7715H57.4824L58.6106 10.1948H59.5556L57.8722 14.8838C57.4864 15.9795 57.0594 16.3311 56.1388 16.3311C56.0644 16.3311 55.8529 16.3228 55.7696 16.3106Z" fill="white"/>
<path d="M60.2498 13.4199H61.137C61.2242 13.8169 61.5973 14.0239 62.1192 14.0239C62.7127 14.0239 63.077 13.7632 63.077 13.3579C63.077 12.9238 62.7499 12.7168 62.1192 12.7168H61.4435V12.0264H62.1075C62.6461 12.0264 62.9203 11.8198 62.9203 11.4434C62.9203 11.1128 62.6549 10.8604 62.1075 10.8604C61.609 10.8604 61.2447 11.0713 61.1869 11.4268H60.3281C60.3923 11.0183 60.6147 10.6513 60.9475 10.4047C61.2802 10.158 61.6968 10.0515 62.1075 10.1079C63.1808 10.1079 63.7948 10.5918 63.7948 11.3526C63.7998 11.5644 63.7318 11.7715 63.602 11.9393C63.4722 12.1071 63.2886 12.2254 63.0819 12.2744V12.3447C63.328 12.3764 63.554 12.4971 63.7168 12.6838C63.8796 12.8706 63.968 13.1105 63.9652 13.3579C63.9652 14.2139 63.2347 14.7803 62.1192 14.7803C61.1331 14.7803 60.332 14.3296 60.2498 13.4199Z" fill="white"/>
<path d="M65.2488 14.6978V10.1948H66.1321V13.292H66.2026L68.2836 10.1948H69.167V14.6978H68.2836V11.584H68.2171L66.1321 14.6978L65.2488 14.6978Z" fill="white"/>
<path d="M74.033 10.9427H72.611V14.6976H71.7189V10.9427H70.2969V10.1947H74.033V10.9427Z" fill="white"/>
<path d="M78.8336 13.4819C78.7121 13.8934 78.4496 14.2493 78.0918 14.4874C77.7339 14.7255 77.3036 14.8307 76.8759 14.7846C76.5784 14.7925 76.2828 14.7356 76.0095 14.6181C75.7363 14.5006 75.4919 14.3252 75.2934 14.104C75.095 13.8829 74.9471 13.6213 74.8602 13.3375C74.7733 13.0537 74.7493 12.7544 74.79 12.4604C74.7504 12.1655 74.7748 11.8656 74.8615 11.5809C74.9482 11.2962 75.0953 11.0335 75.2927 10.8104C75.4901 10.5873 75.7333 10.4092 76.0058 10.2879C76.2783 10.1667 76.5737 10.1053 76.872 10.1079C78.1285 10.1079 78.8874 10.9639 78.8874 12.3779V12.688H75.6988V12.7378C75.6847 12.903 75.7054 13.0694 75.7596 13.2263C75.8138 13.3831 75.9003 13.5269 76.0136 13.6484C76.1269 13.7698 76.2644 13.8664 76.4173 13.9317C76.5702 13.9971 76.7351 14.0298 76.9014 14.0278C77.1144 14.0532 77.3302 14.0148 77.5213 13.9176C77.7124 13.8204 77.8703 13.6687 77.9747 13.4819L78.8336 13.4819ZM75.6988 12.0307H77.9786C77.9899 11.8797 77.9693 11.7279 77.9183 11.5853C77.8673 11.4426 77.7869 11.3122 77.6823 11.2023C77.5777 11.0925 77.4513 11.0056 77.311 10.9474C77.1708 10.8892 77.0199 10.8609 76.8681 10.8642C76.7139 10.8621 76.5609 10.8909 76.418 10.9488C76.2752 11.0067 76.1454 11.0925 76.0364 11.2013C75.9274 11.31 75.8414 11.4394 75.7834 11.5819C75.7254 11.7244 75.6966 11.877 75.6988 12.0307H75.6988Z" fill="white"/>
<path d="M82.6118 10.1948H84.6478C85.5311 10.1948 86.0492 10.6411 86.0492 11.3398C86.0505 11.5615 85.9755 11.777 85.8366 11.9501C85.6978 12.1233 85.5035 12.2436 85.2863 12.291V12.3613C85.55 12.3779 85.7972 12.4949 85.9769 12.6881C86.1566 12.8813 86.2551 13.1359 86.2519 13.3994C86.2519 14.185 85.6594 14.6977 84.6683 14.6977H82.6118V10.1948ZM83.4952 10.877V12.043H84.3785C84.9171 12.043 85.1747 11.8364 85.1747 11.4556C85.1747 11.1045 84.9504 10.8769 84.4774 10.8769L83.4952 10.877ZM83.4952 12.6963V14.0156H84.5519C85.0787 14.0156 85.3608 13.7837 85.3608 13.3579C85.3608 12.9072 85.0415 12.6963 84.4402 12.6963L83.4952 12.6963Z" fill="white"/>
</g>
<defs>
<clipPath id="clip0">
<rect width="120" height="40" fill="white"/>
</clipPath>
</defs>
</svg>
