<svg width="100" height="72" viewBox="0 0 100 72" fill="none" xmlns="http://www.w3.org/2000/svg">
<g clip-path="url(#clip0)">
<path fill-rule="evenodd" clip-rule="evenodd" d="M67.9102 17.124C67.9774 26.6505 60.5147 34.4295 51.2408 34.5C41.9684 34.569 34.3967 26.9032 34.3281 17.3775C34.2609 7.85022 41.7229 0.0704738 50.996 -2.61532e-05C60.2684 -0.0690261 67.8415 7.59747 67.9102 17.124Z" fill="#A2CD3A"/>
<path d="M43.8232 21.0397C45.6195 21.0397 46.7896 20.3032 47.0157 18.9172H45.4598C45.3404 19.5547 44.8344 19.9162 43.8628 19.9162C42.6531 19.9162 42.0008 19.23 41.9478 17.9812H47.0426V17.5447C47.0426 15.2107 45.4859 14.25 43.7568 14.25C41.7747 14.25 40.2986 15.5977 40.2986 17.6197V17.7195C40.2986 19.767 41.7613 21.0397 43.8232 21.0397ZM45.4463 16.971H41.9747C42.1344 15.96 42.7859 15.348 43.7568 15.348C44.768 15.348 45.3538 15.8355 45.4463 16.971ZM49.0643 22.5L49.1172 20.9152H53.8128L53.8665 22.5H55.2366V19.7917H54.2254V14.3873H49.1172C49.1172 15.2482 49.0508 16.9335 48.9045 18.0442C48.7851 18.993 48.6254 19.629 48.1329 19.7917H47.6941V22.5H49.0643ZM52.6292 19.7917H49.9292C50.1419 19.392 50.2486 18.8805 50.3411 18.144C50.4344 17.3452 50.4747 16.2967 50.5143 15.498H52.6292V19.7917ZM58.2292 21.0397C59.2934 21.0397 59.8919 20.6775 60.3575 20.1157V20.9152H61.9404V16.6342C61.9404 14.8365 60.7165 14.25 59.1605 14.25C57.6038 14.25 56.3269 14.8867 56.1807 16.4092H57.7374C57.8299 15.7605 58.2157 15.3855 59.0672 15.3855C60.0247 15.3855 60.3307 15.81 60.3307 16.6965V17.0332H59.4665C57.4844 17.0332 55.9016 17.5822 55.9016 19.1055C55.9016 20.4652 56.9523 21.0397 58.2292 21.0397ZM58.615 19.9537C57.8165 19.9537 57.4978 19.5922 57.4978 19.0425C57.4978 18.2437 58.2822 17.982 59.506 17.982H60.3307V18.6307C60.3307 19.4797 59.6128 19.9537 58.6143 19.9537H58.615Z" fill="white"/>
<path fill-rule="evenodd" clip-rule="evenodd" d="M7.90604 45.3157C7.89634 44.8267 7.80604 44.337 7.6344 43.842C7.36649 43.779 6.99634 43.7535 6.52768 43.7632C6.01724 43.7737 5.54037 43.9807 5.09858 44.3797C4.65754 44.7795 4.29783 45.285 4.02246 45.8947C3.74634 46.506 3.53216 47.1652 3.37918 47.871C3.22694 48.579 3.15679 49.254 3.16948 49.896C3.18291 50.6085 3.31724 51.183 3.57246 51.6187C3.82843 52.0537 4.19933 52.2675 4.68589 52.257C5.1956 52.2465 5.66649 51.999 6.09858 51.519C6.53142 51.0375 6.87619 50.4375 7.1344 49.7212C7.39186 49.0027 7.58739 48.2572 7.72246 47.4817C7.85754 46.707 7.91873 45.9855 7.90604 45.3157ZM5.47545 36.4762C6.03515 36.4642 6.76351 36.4837 7.66425 36.5325C8.56425 36.582 9.32843 36.6 9.95604 36.5865C10.5837 36.573 11.1277 36.4927 11.5866 36.345C11.7956 36.6675 11.8643 37.098 11.7934 37.641C11.6904 38.166 11.465 38.6257 11.1217 39.0187C10.7762 39.4125 10.3322 39.615 9.78963 39.6277C9.19037 39.6397 8.34933 39.5437 7.26873 39.3397C6.18664 39.1357 5.38664 39.0232 4.86798 38.9992C5.37843 39.3832 5.79336 39.7065 6.11425 39.969C6.43515 40.233 6.8247 40.5975 7.28291 41.064C7.74261 41.5297 8.1053 41.9775 8.37246 42.405C8.63963 42.8325 8.87694 43.341 9.08291 43.9335C9.28813 44.5252 9.39783 45.1387 9.40977 45.7725C9.4247 46.545 9.35754 47.355 9.20679 48.2025C9.05754 49.0507 8.82022 49.8832 8.49634 50.7007C8.17171 51.519 7.7844 52.2592 7.33589 52.9207C6.88664 53.583 6.3456 54.1192 5.71351 54.5317C5.08067 54.9442 4.40828 55.158 3.6956 55.1737C3.07246 55.1872 2.52097 55.0785 2.04336 54.8482C1.565 54.6195 1.18142 54.297 0.894102 53.8822C0.606043 53.4697 0.389625 52.9987 0.241117 52.4752C0.0933562 51.9525 0.0135054 51.375 0.00156514 50.7487C-0.0163453 49.8322 0.119476 48.8812 0.408282 47.8972C0.697088 46.9125 1.09485 46.0072 1.60231 45.1822C2.10828 44.3565 2.74559 43.674 3.51276 43.1325C4.28142 42.594 5.0941 42.3142 5.95231 42.2955C6.25977 42.2895 6.53515 42.309 6.77992 42.3547C6.53067 42.0517 6.22918 41.7472 5.8747 41.4427C5.52097 41.1367 5.20977 40.8945 4.94336 40.7152C4.67619 40.5367 4.34485 40.3192 3.94634 40.0612C3.54858 39.804 3.27992 39.63 3.14037 39.5385C3.13366 39.2032 3.13664 38.9272 3.14783 38.7082C3.16052 38.4892 3.20754 38.2267 3.29112 37.9207C3.3747 37.6147 3.49336 37.3687 3.64783 37.1857C3.80231 37.0027 4.0344 36.8407 4.3441 36.7005C4.65306 36.5617 5.03067 36.4867 5.47545 36.4762Z" fill="#272727"/>
<path fill-rule="evenodd" clip-rule="evenodd" d="M16.3762 43.1579C15.8896 43.1677 15.4486 43.3237 15.0516 43.6282C14.6561 43.9327 14.3374 44.3047 14.0993 44.7457C13.8613 45.1874 13.6605 45.6817 13.4949 46.2299C13.3307 46.7774 13.2158 47.2829 13.1493 47.7434C13.0844 48.2062 13.0471 48.6284 13.0382 49.0132C14.3217 48.2039 15.3307 47.3752 16.0643 46.5277C16.7971 45.6817 17.1561 44.8724 17.1389 44.1044C17.1337 43.8239 17.0598 43.5952 16.9173 43.4182C16.7755 43.2397 16.5941 43.1542 16.3762 43.1579ZM19.1426 43.5479C19.1538 44.1007 19.077 44.6092 18.9105 45.0727C18.7441 45.5362 18.4441 46.0312 18.0105 46.5554C17.577 47.0804 16.9598 47.6302 16.1635 48.2024C15.365 48.7747 14.3605 49.3964 13.1486 50.0692C13.4016 51.2744 14.2113 51.8624 15.5799 51.8362C16.4859 51.8182 17.4553 51.5354 18.4889 50.9864C19.5225 50.4389 20.3128 49.8022 20.8598 49.0777C21.177 49.0169 21.4053 49.0814 21.5434 49.2757C21.6822 49.4692 21.6747 49.6792 21.5202 49.9072C20.6814 51.1402 19.5964 52.1242 18.2643 52.8592C16.9329 53.5934 15.6247 53.9737 14.3411 53.9992C13.4516 54.0164 12.6576 53.8537 11.9568 53.5102C11.2576 53.1674 10.7277 52.6439 10.368 51.9367C10.2359 52.0042 10.1367 52.0454 10.0687 52.0627C9.55979 52.1932 8.3195 52.1977 7.93965 51.9089C7.5598 51.6194 7.40681 51.2377 7.48069 50.7637C7.97696 50.8184 9.32472 50.6317 9.93218 50.3714C9.88218 50.0122 9.85606 49.7842 9.85457 49.6882C9.84263 49.1444 9.89338 48.5669 10.0061 47.9557C10.1195 47.3444 10.2867 46.7264 10.5076 46.1017C10.7299 45.4762 11.024 44.8769 11.3896 44.3002C11.7546 43.7242 12.1635 43.2119 12.6158 42.7627C13.0673 42.3127 13.6008 41.9527 14.2165 41.6797C14.8322 41.4074 15.4799 41.2649 16.1598 41.2514C16.721 41.2409 17.2031 41.2994 17.6053 41.4277C18.0068 41.5559 18.3128 41.7389 18.5232 41.9752C18.7337 42.2107 18.8882 42.4559 18.9859 42.7109C19.0829 42.9652 19.1359 43.2442 19.1426 43.5479Z" fill="#272727"/>
<path fill-rule="evenodd" clip-rule="evenodd" d="M31.2489 33.372C31.1571 32.232 30.7936 31.395 30.1571 30.861C29.5213 30.3285 28.7869 30.0915 27.9548 30.1507C27.0481 30.2167 26.3653 30.5295 25.9041 31.0882C25.4429 31.647 25.2444 32.3205 25.3071 33.108C25.3593 33.7545 25.6048 34.3987 26.0436 35.0415C25.5153 35.4465 24.9705 35.6677 24.4115 35.709C23.716 35.7585 23.1056 35.5725 22.578 35.1487C22.0496 34.725 21.7563 34.1325 21.6951 33.3682C21.6347 32.6167 21.7414 31.929 22.016 31.3057C22.2907 30.6832 22.6668 30.168 23.1459 29.7607C23.6257 29.3542 24.1907 29.0032 24.8421 28.7085C25.4921 28.413 26.131 28.1955 26.7563 28.056C27.3817 27.9165 28.0108 27.8235 28.6444 27.7777C29.5384 27.7132 30.3854 27.7612 31.1847 27.9225C31.9854 28.0837 32.716 28.3605 33.3787 28.7497C34.0399 29.139 34.5839 29.688 35.0093 30.3952C35.4347 31.104 35.6854 31.935 35.7615 32.8867C35.8115 33.5092 35.7295 34.1902 35.513 34.9267C35.2981 35.664 34.9615 36.4177 34.5063 37.1887C34.0496 37.9612 33.4071 38.7075 32.5787 39.4297C31.7504 40.1512 30.7996 40.7587 29.728 41.2492C31.7727 41.0662 33.3847 41.3527 34.5638 42.1072C35.7429 42.8617 36.4018 44.1082 36.5414 45.8475C36.6518 47.2222 36.4086 48.5475 35.8116 49.8195C35.2153 51.0922 34.4018 52.173 33.3757 53.064C32.3474 53.9535 31.1914 54.6787 29.9056 55.239C28.6213 55.797 27.3392 56.1232 26.0601 56.2155C24.0489 56.3602 22.3474 56.049 20.9556 55.2802C19.563 54.5115 18.8018 53.3092 18.6705 51.6765C18.5996 50.7945 18.8026 50.0182 19.2787 49.344C19.7563 48.6712 20.522 48.2977 21.5772 48.222C21.863 48.201 22.1727 48.252 22.5078 48.375C22.8414 48.5002 23.0877 48.6735 23.2429 48.8985C22.9474 49.4167 22.8272 50.0227 22.8832 50.7172C22.9698 51.798 23.3384 52.605 23.9854 53.1382C24.6347 53.6692 25.4123 53.904 26.3183 53.838C26.9765 53.7915 27.6347 53.586 28.2929 53.2252C28.9504 52.8652 29.5496 52.3822 30.0877 51.774C30.625 51.1695 31.0414 50.394 31.3324 49.4505C31.625 48.5077 31.7287 47.496 31.6414 46.4137C31.5765 45.6037 31.4048 44.9467 31.1272 44.4472C30.8504 43.947 30.4332 43.5742 29.8765 43.332C29.3198 43.0867 28.6899 42.9382 27.9862 42.882C27.2817 42.8272 26.3839 42.8385 25.2907 42.9165C25.0227 42.3802 25.0683 41.7802 25.4272 41.115C26.3929 41.0107 27.2414 40.7685 27.972 40.3912C28.7041 40.0132 29.2854 39.564 29.719 39.0412C30.1518 38.5207 30.4944 37.9237 30.7466 37.257C30.9981 36.5887 31.1586 35.9377 31.2272 35.3055C31.2936 34.6755 31.3018 34.0305 31.2496 33.372" fill="#272727"/>
<path fill-rule="evenodd" clip-rule="evenodd" d="M45.439 41.0071C45.4076 39.8551 45.0942 38.9956 44.4957 38.4286C43.8972 37.8609 43.186 37.5879 42.3644 37.6081C41.4681 37.6299 40.7785 37.9119 40.2957 38.4519C39.8121 38.9926 39.5808 39.6601 39.6017 40.4566C39.6188 41.1091 39.8263 41.7706 40.2255 42.4366C39.683 42.8191 39.136 43.0164 38.5838 43.0306C37.8949 43.0479 37.3032 42.8296 36.8061 42.3796C36.3084 41.9274 36.0502 41.3161 36.03 40.5436C36.0099 39.7854 36.1517 39.0991 36.4539 38.4856C36.7576 37.8721 37.1554 37.3711 37.6494 36.9834C38.142 36.5986 38.7166 36.2724 39.3733 36.0054C40.03 35.7406 40.6696 35.5524 41.2935 35.4414C41.9173 35.3319 42.542 35.2689 43.1681 35.2539C44.0524 35.2314 44.8838 35.3206 45.6621 35.5209C46.4412 35.7211 47.1472 36.0346 47.7793 36.4576C48.4099 36.8821 48.9166 37.4604 49.2987 38.1939C49.68 38.9266 49.8838 39.7756 49.9091 40.7356C49.9255 41.3656 49.8091 42.0466 49.5584 42.7771C49.3069 43.5076 48.936 44.2509 48.4464 45.0046C47.9569 45.7606 47.2845 46.4814 46.4315 47.1676C45.577 47.8546 44.6099 48.4186 43.527 48.8626C45.5524 48.7764 47.1255 49.1416 48.2457 49.9576C49.3673 50.7729 49.9517 52.0591 49.9972 53.8171C50.0338 55.2046 49.7248 56.5276 49.0703 57.7794C48.4151 59.0311 47.5576 60.0796 46.5009 60.9264C45.4412 61.7716 44.2644 62.4459 42.9696 62.9469C41.6748 63.4479 40.395 63.7149 39.1308 63.7464C37.142 63.7951 35.483 63.3999 34.1532 62.5591C32.8226 61.7191 32.1352 60.4741 32.0912 58.8226C32.0673 57.9331 32.3076 57.1606 32.8136 56.5051C33.3173 55.8511 34.092 55.5121 35.1345 55.4851C35.4173 55.4784 35.7196 55.5451 36.0435 55.6876C36.3666 55.8264 36.5987 56.0139 36.7397 56.2479C36.4211 56.7549 36.2718 57.3586 36.2905 58.0599C36.3188 59.1526 36.6382 59.9821 37.2487 60.5491C37.8606 61.1161 38.6144 61.3891 39.5099 61.3666C40.1606 61.3494 40.8188 61.1761 41.486 60.8454C42.1524 60.5131 42.7681 60.0556 43.3293 59.4706C43.8912 58.8871 44.342 58.1274 44.6793 57.1914C45.0151 56.2576 45.1703 55.2444 45.142 54.1509C45.1196 53.3311 44.9852 52.6629 44.7382 52.1469C44.492 51.6294 44.1002 51.2364 43.5651 50.9649C43.0293 50.6911 42.4166 50.5104 41.7263 50.4204C41.036 50.3304 40.1502 50.3004 39.0711 50.3259C38.8352 49.7731 38.9114 49.1709 39.2994 48.5199C40.2554 48.4606 41.1047 48.2581 41.8442 47.9124C42.5838 47.5681 43.18 47.1444 43.6352 46.6396C44.089 46.1356 44.4561 45.5521 44.7397 44.8921C45.0233 44.2314 45.2151 43.5856 45.3144 42.9526C45.4158 42.3204 45.4561 41.6731 45.439 41.0071Z" fill="#272727"/>
<path fill-rule="evenodd" clip-rule="evenodd" d="M55.6785 49.8998L57.115 43.2968C56.6971 43.1603 56.2919 43.0928 55.8986 43.0928C55.1635 43.0928 54.5113 43.3065 53.9434 43.7325C53.3762 44.16 52.9352 44.7135 52.6225 45.396C52.3091 46.0793 52.0755 46.7835 51.9217 47.5118C51.768 48.2385 51.6904 48.963 51.6919 49.6868C51.6919 50.2718 51.8195 50.7143 52.0747 51.0105C52.3307 51.3083 52.6665 51.4568 53.0844 51.4568C53.5024 51.456 53.9531 51.312 54.4389 51.0225C54.9232 50.7323 55.3359 50.358 55.6777 49.8998H55.6785ZM54.9829 41.25C56.1106 41.2493 56.9926 41.5178 57.6285 42.0548C58.0456 41.5823 58.6262 41.3445 59.3703 41.3438C59.83 41.343 60.2315 41.4473 60.5732 41.6565L58.7867 49.8255C58.5128 51.0465 58.768 51.657 59.5538 51.657C60.0046 51.6563 60.4792 51.534 60.9762 51.288C61.4725 51.0428 61.8971 50.7518 62.2479 50.4135C62.5404 50.5335 62.6859 50.7345 62.6867 51.0158C62.6874 51.2093 62.6121 51.39 62.4621 51.558C61.8352 52.242 61.1068 52.8188 60.2755 53.289C59.4441 53.7593 58.6897 53.994 58.0128 53.994C57.3188 53.9948 56.7464 53.8073 56.2964 53.4308C55.8434 53.0535 55.6218 52.4145 55.63 51.5145C55.0613 52.278 54.4434 52.8833 53.7755 53.3295C53.1068 53.7758 52.4218 53.9993 51.7203 54C51.2106 54 50.7591 53.9055 50.3665 53.718C49.9732 53.5298 49.662 53.2905 49.4315 53.001C49.2009 52.713 49.015 52.3755 48.8725 51.9893C48.7307 51.6038 48.6337 51.24 48.5837 50.8995C48.5337 50.5575 48.5083 50.211 48.5076 49.857C48.5068 48.4275 48.7934 47.052 49.3695 45.7298C49.9441 44.409 50.7367 43.3313 51.7426 42.4995C52.7501 41.667 53.8292 41.2515 54.9829 41.25Z" fill="#272727"/>
<path fill-rule="evenodd" clip-rule="evenodd" d="M69.1135 44.97C69.1135 44.5178 69.0336 44.0625 68.8717 43.602C68.6083 43.539 68.2426 43.5075 67.7777 43.5083C67.2732 43.509 66.7986 43.6898 66.3538 44.0505C65.9083 44.412 65.5456 44.8718 65.2613 45.4313C64.9777 45.99 64.7531 46.5953 64.5896 47.2448C64.4247 47.8958 64.3433 48.5175 64.3433 49.1123C64.3448 49.77 64.4665 50.304 64.712 50.7128C64.9568 51.12 65.3195 51.324 65.8016 51.324C66.3053 51.3233 66.7762 51.105 67.212 50.6693C67.6478 50.232 68.0016 49.6845 68.2695 49.0268C68.5374 48.3683 68.7456 47.682 68.8934 46.968C69.0411 46.2548 69.1135 45.588 69.1135 44.97ZM66.871 36.7538C67.4247 36.7538 68.1456 36.7853 69.0359 36.8483C69.9254 36.9105 70.6822 36.9413 71.3023 36.9413C71.9239 36.9413 72.4628 36.8775 72.9195 36.75C73.121 37.0515 73.1799 37.4512 73.1008 37.95C72.9889 38.4345 72.759 38.8545 72.4098 39.2115C72.062 39.5693 71.6187 39.7478 71.0814 39.7485C70.4881 39.7485 69.659 39.6435 68.5933 39.4335C67.5262 39.225 66.7366 39.1058 66.2239 39.0735C66.721 39.4388 67.1254 39.7455 67.4396 39.9953C67.7516 40.2443 68.1314 40.5885 68.5762 41.028C69.0217 41.4683 69.3717 41.8883 69.6284 42.288C69.8859 42.6885 70.1113 43.164 70.3045 43.7145C70.4956 44.2658 70.5926 44.8343 70.5926 45.4208C70.5934 46.1348 70.512 46.8825 70.3493 47.6633C70.1844 48.4433 69.9344 49.209 69.5993 49.9583C69.2628 50.709 68.8672 51.3848 68.4098 51.987C67.953 52.5908 67.4083 53.076 66.7754 53.4458C66.1426 53.814 65.4739 53.9993 64.7687 54C64.1508 54 63.6075 53.889 63.1389 53.6678C62.6702 53.4473 62.2956 53.1405 62.0195 52.7535C61.7426 52.3658 61.5366 51.927 61.4001 51.4395C61.2627 50.9528 61.1941 50.4195 61.1941 49.8405C61.1941 48.9915 61.3456 48.1155 61.6486 47.2118C61.953 46.3073 62.3628 45.4793 62.8799 44.7255C63.3956 43.9718 64.0396 43.353 64.8083 42.8685C65.5769 42.3848 66.3859 42.141 67.2366 42.141C67.5419 42.141 67.8135 42.165 68.0545 42.2115C67.8135 41.9265 67.521 41.6408 67.1762 41.3505C66.8307 41.0618 66.5269 40.8315 66.268 40.662C66.006 40.491 65.6814 40.2833 65.2933 40.0373C64.9038 39.7928 64.6419 39.6263 64.5053 39.5385C64.5053 39.2288 64.5128 38.9738 64.5292 38.7713C64.5441 38.5688 64.5963 38.328 64.6844 38.046C64.7717 37.7648 64.8941 37.5413 65.0508 37.3733C65.2068 37.2075 65.4389 37.062 65.7471 36.939C66.056 36.8152 66.4299 36.7545 66.871 36.7538ZM84.0269 42.5228C84.2381 42.7313 84.3389 42.9705 84.3277 43.239C84.3165 43.509 84.2157 43.7235 84.0284 43.884C83.9874 43.9163 83.6501 44.25 83.0135 44.8853C82.3792 45.5205 81.8635 45.9668 81.471 46.224C81.4859 46.2878 81.4949 46.38 81.4949 46.5015C81.4956 47.4165 81.3016 48.336 80.9128 49.2615C80.5247 50.184 80.0322 50.9895 79.4351 51.6713C78.8381 52.3538 78.1605 52.914 77.4031 53.3468C76.6448 53.7818 75.9083 53.9993 75.1934 54C74.5874 54 74.0538 53.8845 73.5889 53.6513C73.1262 53.4188 72.756 53.0978 72.4814 52.6883C72.2053 52.2788 71.9978 51.8183 71.8545 51.303C71.7142 50.79 71.6419 50.2358 71.6419 49.6418C71.6411 48.894 71.7366 48.1268 71.9292 47.3393C72.1195 46.5518 72.4031 45.7988 72.7754 45.0795C73.1486 44.3603 73.5799 43.713 74.071 43.1385C74.562 42.5648 75.1329 42.1058 75.7851 41.763C76.4366 41.4218 77.118 41.2508 77.8247 41.25C78.4687 41.25 79.0254 41.358 79.4926 41.5748C79.9598 41.7908 80.368 42.1643 80.7128 42.6945C80.6904 42.9668 80.5963 43.1693 80.4314 43.3028C80.2665 43.4348 80.0896 43.4655 79.9001 43.3928C79.3978 43.209 78.8829 43.1175 78.356 43.1175C77.8292 43.1175 77.3344 43.3035 76.871 43.6725C76.4083 44.043 76.0247 44.511 75.7225 45.0773C75.4217 45.645 75.1814 46.2593 75.006 46.9275C74.8284 47.5943 74.7396 48.2333 74.7404 48.843C74.7411 49.863 74.8881 50.6205 75.1792 51.114C75.4702 51.6083 75.8471 51.8543 76.3105 51.8535C76.9553 51.8535 77.5792 51.444 78.1784 50.625C78.7792 49.8038 79.0792 48.8648 79.0792 47.8035C79.0777 47.5148 79.0381 47.178 78.9598 46.791C78.4896 46.7685 78.1187 46.6718 77.8516 46.5045C77.5829 45.8213 77.5814 45.2183 77.8441 44.697C78.1075 44.1743 78.5769 43.9125 79.2531 43.9125C80.1023 43.9118 80.7351 44.289 81.1523 45.0428C81.5195 44.8095 82.0411 44.3738 82.712 43.734C83.3851 43.095 83.8225 42.6915 84.0269 42.5228Z" fill="#272727"/>
<path fill-rule="evenodd" clip-rule="evenodd" d="M98.3212 45.1786L97.2868 50.2261C97.1659 50.8771 97.16 51.3526 97.2697 51.6541C97.3786 51.9541 97.5659 52.1041 97.8309 52.1041C98.0801 52.1056 98.3294 52.0036 98.5786 51.8019C98.8279 51.6024 99.0406 51.2896 99.2167 50.8644C99.4503 50.8636 99.6309 50.9251 99.76 51.0511C99.8891 51.1756 99.9525 51.3474 99.9525 51.5649C99.9532 52.1244 99.7652 52.6419 99.3868 53.1181C99.0092 53.5936 98.5629 53.9529 98.0495 54.1951C97.5346 54.4381 97.0361 54.5589 96.5532 54.5596C96.3279 54.5596 96.1129 54.5394 95.9077 54.4981C95.7032 54.4561 95.4861 54.3856 95.2562 54.2851C95.0271 54.1854 94.8323 54.0474 94.6719 53.8726C94.5115 53.6971 94.3667 53.4759 94.2428 53.2096C94.1174 52.9419 94.0555 52.6201 94.0555 52.2444C94.0555 51.8694 94.0935 51.4306 94.1749 50.9304L95.2085 45.8191C95.3361 45.4029 95.3652 45.0459 95.2928 44.7489C95.2197 44.4534 94.9943 44.3049 94.6159 44.3049C93.8846 44.3049 93.1682 44.6986 92.4704 45.4839L90.9435 52.9464C90.8316 53.4991 90.5823 53.9064 90.1965 54.1696C89.81 54.4336 89.3682 54.5656 88.8697 54.5649C88.4279 54.5664 88.0413 54.4576 87.7107 54.2401L89.4308 45.8251C89.5503 45.4081 89.5749 45.0504 89.5017 44.7549C89.4294 44.4579 89.2077 44.3101 88.8391 44.3101C88.0338 44.3109 87.2741 44.7579 86.56 45.6526L85.0689 52.9531C84.957 53.5051 84.7055 53.9131 84.3152 54.1756C83.9264 54.4381 83.4816 54.5709 82.9838 54.5709C82.5413 54.5709 82.1547 54.4636 81.8249 54.2454L83.845 44.3896C83.8935 44.1894 83.8928 44.0326 83.8443 43.9194C83.7958 43.8069 83.7152 43.7506 83.6025 43.7514C83.498 43.7514 83.3323 43.8549 83.1085 44.0634C82.9234 43.9561 82.8204 43.7461 82.8003 43.4379C82.7809 43.1296 82.8823 42.8664 83.107 42.6489C84.1122 41.8291 85.0323 41.4196 85.8697 41.4189C86.3346 41.4189 86.6756 41.5336 86.8891 41.7616C87.1017 41.9919 87.1562 42.3444 87.051 42.8206L86.8107 43.9846C87.9517 42.2731 89.1689 41.4166 90.4644 41.4159C91.0361 41.4151 91.5316 41.6446 91.9555 42.1021C92.3779 42.5619 92.5726 43.2129 92.5413 44.0559C93.7301 42.2941 94.9637 41.4121 96.2428 41.4114C96.4838 41.4114 96.7174 41.4459 96.942 41.5164C97.1674 41.5869 97.3988 41.7061 97.6368 41.8734C97.8734 42.0399 98.057 42.2671 98.1853 42.5559C98.3137 42.8424 98.4055 43.2016 98.4585 43.6314C98.5107 44.0626 98.4644 44.5771 98.3204 45.1786H98.3212ZM39.1316 71.3926C29.957 71.4631 21.5092 66.7179 16.5346 58.7004C16.3159 58.3479 16.4137 57.8784 16.7532 57.6504C17.0928 57.4254 17.5458 57.5251 17.7644 57.8784C22.4659 65.4556 30.4503 69.9414 39.1204 69.8754C47.9017 69.8079 55.8741 65.1129 60.4473 57.3166C60.6562 56.9581 61.107 56.8449 61.4517 57.0631C61.7973 57.2806 61.9062 57.7479 61.6965 58.1064C56.8577 66.3556 48.4226 71.3229 39.1316 71.3934" fill="#272727"/>
<path fill-rule="evenodd" clip-rule="evenodd" d="M63.7202 36.75C63.5382 36.7522 63.365 36.5647 63.2904 36.252C63.124 35.5545 62.9382 34.86 62.7389 34.1865C62.621 33.789 62.7091 33.2985 62.9359 33.0915C63.1628 32.8845 63.4419 33.0397 63.5598 33.438C63.7702 34.1505 63.9665 34.8855 64.1434 35.6235C64.2419 36.0375 64.1314 36.513 63.8956 36.687C63.8389 36.729 63.7792 36.7492 63.7202 36.75ZM16.4352 35.25C16.3255 35.2507 16.2143 35.229 16.1083 35.1825C15.7292 35.0175 15.5658 34.596 15.7434 34.2427C18.7852 28.1955 24.3695 23.3857 31.0643 21.045C31.4568 20.9085 31.8941 21.093 32.0419 21.459C32.1882 21.8242 31.9897 22.2322 31.5971 22.3695C25.2688 24.5812 19.9919 29.1277 17.1173 34.8427C16.9897 35.0977 16.7188 35.2477 16.4352 35.25Z" fill="#272727"/>
</g>
<defs>
<clipPath id="clip0">
<rect width="100" height="72" fill="white"/>
</clipPath>
</defs>
</svg>
